<?xml version="1.0" encoding="UTF-8"?>
<svg width="748px" height="167px" viewBox="0 0 748 167" version="1.1" xmlns="http://www.w3.org/2000/svg" xmlns:xlink="http://www.w3.org/1999/xlink">
    <!-- Generator: Sketch 49.1 (51147) - http://www.bohemiancoding.com/sketch -->
    <title>logo-ubiqum-white</title>
    <desc>Created with Sketch.</desc>
    <defs></defs>
    <g id="Logos-+-icons" stroke="none" stroke-width="1" fill="none" fill-rule="evenodd">
        <g id="logo-ubiqum" transform="translate(-26.000000, -67.000000)" fill-rule="nonzero">
            <g id="logo-ubiqum-white" transform="translate(26.000000, 67.000000)">
                <path d="M83.4958235,0 C37.3918622,0 0,37.3812025 0,83.5 C0,129.614621 37.3918622,167 83.4958235,167 C129.616491,167 167,129.614621 167,83.5 C167.004176,37.3812025 129.616491,0 83.4958235,0 Z M97.1862652,39.7201381 L118.469514,39.7201381 L118.469514,39.7284914 L118.511279,39.7243147 C121.693743,39.7243147 124.27062,42.3054972 124.27062,45.4839436 C124.27062,48.6582133 121.693743,51.2310424 118.502926,51.2310424 L118.469514,51.2268657 L118.469514,51.2393958 L97.1862652,51.2393958 L97.1862652,51.2352191 C94.0038013,51.2352191 91.4352773,48.66239 91.4352773,45.4881202 C91.4352773,42.3013205 94.0038013,39.7201381 97.1862652,39.7201381 Z M37.7593908,39.7201381 L80.2841244,39.7201381 L80.2841244,39.7284914 L80.334242,39.7243147 C83.5083529,39.7243147 86.0852298,42.3054972 86.0852298,45.4839436 C86.0852298,48.6582133 83.5083529,51.2310424 80.3175361,51.2310424 L80.2841244,51.2268657 L80.2841244,51.2393958 L37.7593908,51.2393958 L37.7593908,51.2352191 C34.5852798,51.2352191 32.0084029,48.66239 32.0084029,45.4881202 C32.0084029,42.3013205 34.5894563,39.7201381 37.7593908,39.7201381 Z M80.334242,89.1301521 C83.5083529,89.1301521 86.0852298,91.7071579 86.0852298,94.8814276 C86.0852298,98.0640506 83.5083529,100.632703 80.3175361,100.632703 L80.2841244,100.632703 L80.2841244,100.641056 L37.7593908,100.641056 L37.7593908,100.632703 C34.5852798,100.632703 32.0084029,98.0640506 32.0084029,94.8814276 C32.0084029,91.7071579 34.5852798,89.1301521 37.7593908,89.1301521 L80.2841244,89.1301521 L80.334242,89.1301521 Z M129.236433,125.333533 L129.194668,125.333533 L129.194668,125.341887 L37.7593908,125.341887 L37.7593908,125.333533 C34.5852798,125.333533 32.0084029,122.764881 32.0084029,119.582258 C32.0084029,116.407988 34.5852798,113.839336 37.7593908,113.839336 L129.194668,113.839336 L129.219727,113.839336 L129.236433,113.839336 C132.42725,113.839336 134.995774,116.407988 134.995774,119.582258 C134.995774,122.760704 132.423073,125.333533 129.236433,125.333533 Z M129.236433,75.9318727 L129.194668,75.9318727 L129.194668,75.9360494 L37.7593908,75.9360494 L37.7593908,75.9318727 C34.5852798,75.9318727 32.0084029,73.3548669 32.0084029,70.1805972 C32.0084029,67.0021509 34.5852798,64.4334984 37.7593908,64.4334984 L129.194668,64.4334984 L129.219727,64.4334984 L129.236433,64.4334984 C132.42725,64.4334984 134.995774,67.0063275 134.995774,70.1805972 C134.995774,73.3506903 132.423073,75.9318727 129.236433,75.9318727 Z" id="Shape" fill="#F44336"></path>
                <g id="Group" transform="translate(191.000000, 0.000000)" fill="#000000">
                    <path d="M74.1486567,123.37125 C70.0197015,124.5653 64.6955224,125.67585 58.1844776,126.7029 C51.6608955,127.7383 44.8155224,128.251825 37.6483582,128.251825 C30.3767164,128.251825 24.3128358,127.274875 19.4776119,125.32515 C14.6465672,123.37125 10.8268657,120.628275 8.00179104,117.096225 C5.18507463,113.580875 3.17074627,109.372475 1.97134328,104.487725 C0.788656716,99.602975 0.174328358,94.2381 0.174328358,88.3764 L0.174328358,40.68955 L24.4507463,40.68955 L24.4507463,85.44555 C24.4507463,93.26115 25.4871642,98.90575 27.56,102.37935 C29.6161194,105.85295 33.4692537,107.5814 39.119403,107.5814 C40.8579104,107.5814 42.7008955,107.4979 44.6608955,107.335075 C46.6125373,107.17225 48.3510448,106.984375 49.8764179,106.7631 L49.8764179,40.68955 L74.1528358,40.68955 L74.1486567,123.37125 Z" id="Shape"></path>
                    <path d="M176.570149,83.495825 C176.570149,90.334475 175.558806,96.513475 173.557015,102.041175 C171.542687,107.577225 168.63403,112.29915 164.839403,116.202775 C161.036418,120.11475 156.368358,123.124925 150.822687,125.24165 C145.289552,127.3542 138.987463,128.4063 131.920597,128.4063 C128.991045,128.4063 125.927761,128.276875 122.722388,128.0055 C119.521194,127.7383 116.370149,127.37925 113.277612,126.94505 C110.176716,126.51085 107.22209,125.997325 104.397015,125.404475 C101.563582,124.7991 99.0686567,124.1812 96.9038806,123.5299 L96.9038806,3.911975 L121.180299,0 L121.180299,42.64345 C123.888358,41.4494 126.721791,40.526725 129.651343,39.875425 C132.580896,39.224125 135.73194,38.898475 139.096119,38.898475 C145.176716,38.898475 150.555224,39.958925 155.223284,42.07565 C159.891343,44.1882 163.802985,47.20255 166.95403,51.11035 C170.105075,55.013975 172.487164,59.71085 174.121194,65.192625 C175.755224,70.6744 176.570149,76.765725 176.570149,83.495825 Z M151.804776,82.836175 C151.804776,67.2175 146.041791,59.4019 134.532537,59.4019 C132.033433,59.4019 129.567761,59.72755 127.122985,60.37885 C124.682388,61.03015 122.697313,61.84845 121.180299,62.81705 L121.180299,106.917575 C122.371343,107.143025 123.888358,107.3309 125.735522,107.493725 C127.586866,107.65655 129.597015,107.744225 131.76597,107.744225 C138.39403,107.744225 143.379701,105.464675 146.752239,100.9014 C150.116418,96.35065 151.804776,90.334475 151.804776,82.836175 Z" id="Shape"></path>
                    <polygon id="Shape" points="219.840597 126.3021 195.572537 126.3021 195.572537 40.68955 219.840597 40.68955"></polygon>
                    <path d="M239.014328,83.495825 C239.014328,76.87845 240.025672,70.820525 242.035821,65.342925 C244.037612,59.8695 246.954627,55.147575 250.757612,51.1855 C254.54806,47.2276 259.216119,44.16315 264.757612,41.987975 C270.307463,39.82115 276.592836,38.731475 283.655522,38.731475 C286.593433,38.731475 289.660896,38.873425 292.86209,39.1448 C296.067463,39.412 299.218507,39.766875 302.311045,40.201075 C305.407761,40.635275 308.370746,41.1488 311.2,41.745825 C314.016716,42.34285 316.511642,42.973275 318.684776,43.61205 L318.684776,162.83335 L294.412537,167 L294.412537,124.1812 C291.700299,125.371075 288.871045,126.3021 285.937313,126.94505 C283.007761,127.59635 279.856716,127.922 276.48,127.922 C264.318806,127.922 255.037015,123.934875 248.630448,115.960625 C242.223881,107.986375 239.014328,97.156425 239.014328,83.495825 Z M263.775522,84.147125 C263.775522,99.661425 269.538507,107.418575 281.047761,107.418575 C283.546866,107.418575 286.016716,107.092925 288.457313,106.441625 C290.906269,105.798675 292.882985,104.980375 294.408358,104.003425 L294.408358,60.216025 C293.208955,60.0031 291.69194,59.806875 289.844776,59.648225 C287.993433,59.4854 285.979104,59.397725 283.822687,59.397725 C277.194627,59.397725 272.192239,61.6564 268.82806,66.152875 C265.459701,70.66605 263.775522,76.653 263.775522,84.147125 Z" id="Shape"></path>
                    <path d="M415.589851,123.37125 C411.460896,124.5653 406.136716,125.67585 399.625672,126.7029 C393.10209,127.7383 386.269254,128.251825 379.10209,128.251825 C371.82209,128.251825 365.770746,127.274875 360.935522,125.32515 C356.087761,123.37125 352.272239,120.628275 349.451343,117.096225 C346.61791,113.580875 344.624478,109.372475 343.425075,104.487725 C342.225672,99.602975 341.632239,94.2381 341.632239,88.3764 L341.632239,40.68955 L365.904478,40.68955 L365.904478,85.44555 C365.904478,93.26115 366.932537,98.90575 368.997015,102.37935 C371.057313,105.85295 374.922985,107.5814 380.577313,107.5814 C382.315821,107.5814 384.146269,107.4979 386.106269,107.335075 C388.070448,107.17225 389.800597,106.984375 391.321791,106.7631 L391.321791,40.68955 L415.602388,40.68955 L415.602388,123.37125 L415.589851,123.37125 Z" id="Shape"></path>
                    <path d="M485.610746,80.890625 C485.610746,73.0792 484.599403,67.538975 482.585075,64.28665 C480.574925,61.03015 477.122985,59.4019 472.241791,59.4019 C470.716418,59.4019 469.140896,59.489575 467.511045,59.6524 C465.868657,59.81105 464.301493,60.0031 462.784478,60.2202 L462.784478,126.306275 L438.50806,126.306275 L438.50806,43.61205 C440.564179,43.07765 442.98806,42.505675 445.754627,41.90865 C448.521194,41.3158 451.459104,40.77305 454.547463,40.2804 C457.648358,39.791925 460.824478,39.412 464.08,39.1448 C467.322985,38.873425 470.545075,38.731475 473.687761,38.731475 C479.868657,38.731475 484.908657,39.52055 488.749254,41.094525 C492.614925,42.664325 495.791045,44.543075 498.281791,46.705725 C501.750448,44.217425 505.749851,42.25935 510.254925,40.852375 C514.76,39.4454 518.91403,38.731475 522.717015,38.731475 C529.558209,38.731475 535.179104,39.68755 539.579701,41.583 C543.963582,43.4868 547.47403,46.171325 550.08597,49.636575 C552.689552,53.110175 554.486567,57.23925 555.456119,62.011275 C556.442388,66.7833 556.927164,72.10225 556.927164,77.959775 L556.927164,126.3021 L532.659104,126.3021 L532.659104,80.890625 C532.659104,73.0792 531.656119,67.538975 529.637612,64.28665 C527.631642,61.03015 524.179701,59.4019 519.290149,59.4019 C517.986269,59.4019 516.164179,59.72755 513.815522,60.37885 C512.336119,60.79635 509.832836,61.835925 509.832836,61.835925 C509.832836,61.835925 509.832836,76.440075 509.832836,79.58385 L509.832836,126.297925 L485.564776,126.297925 L485.564776,80.890625 L485.610746,80.890625 Z" id="Shape"></path>
                </g>
            </g>
        </g>
    </g>
</svg>